<mxfile host="app.diagrams.net" modified="2022-12-05T04:01:00.227Z" agent="5.0 (Windows NT 10.0; Win64; x64) AppleWebKit/537.36 (KHTML, like Gecko) Chrome/107.0.0.0 Safari/537.36 Edg/107.0.1418.62" etag="xNzGi0HHj-QAjMdSLJJl" version="20.6.0" type="github">
  <diagram id="1LCpvACBXR5zEp1i5WNj" name="第 1 页">
    <mxGraphModel dx="1738" dy="1040" grid="1" gridSize="10" guides="1" tooltips="1" connect="1" arrows="1" fold="1" page="1" pageScale="1" pageWidth="827" pageHeight="1169" math="0" shadow="0">
      <root>
        <mxCell id="0" />
        <mxCell id="1" parent="0" />
        <mxCell id="GB6EUP5TXQfbCuke4qzm-29" value="" style="rounded=0;whiteSpace=wrap;html=1;sketch=0;opacity=10;fillColor=#6666FF;strokeWidth=2;" parent="1" vertex="1">
          <mxGeometry x="130" y="420" width="440" height="340" as="geometry" />
        </mxCell>
        <mxCell id="GB6EUP5TXQfbCuke4qzm-30" value="Actor" style="shape=umlActor;verticalLabelPosition=bottom;verticalAlign=top;html=1;outlineConnect=0;" parent="1" vertex="1">
          <mxGeometry x="370" y="70" width="30" height="60" as="geometry" />
        </mxCell>
        <mxCell id="GB6EUP5TXQfbCuke4qzm-31" value="" style="endArrow=none;dashed=1;html=1;rounded=0;" parent="1" edge="1">
          <mxGeometry width="50" height="50" relative="1" as="geometry">
            <mxPoint x="10" y="400" as="sourcePoint" />
            <mxPoint x="810" y="400" as="targetPoint" />
          </mxGeometry>
        </mxCell>
        <mxCell id="GB6EUP5TXQfbCuke4qzm-32" style="edgeStyle=orthogonalEdgeStyle;rounded=0;orthogonalLoop=1;jettySize=auto;html=1;fontSize=27;entryX=0;entryY=0.667;entryDx=0;entryDy=0;entryPerimeter=0;" parent="1" source="GB6EUP5TXQfbCuke4qzm-33" target="GB6EUP5TXQfbCuke4qzm-37" edge="1">
          <mxGeometry relative="1" as="geometry">
            <mxPoint x="480" y="310" as="targetPoint" />
            <Array as="points">
              <mxPoint x="385" y="320" />
            </Array>
          </mxGeometry>
        </mxCell>
        <mxCell id="GB6EUP5TXQfbCuke4qzm-33" value="&lt;font style=&quot;font-size: 18px;&quot;&gt;控制台&lt;/font&gt;" style="rounded=1;whiteSpace=wrap;html=1;fillColor=#1ba1e2;fontColor=#ffffff;strokeColor=#006EAF;" parent="1" vertex="1">
          <mxGeometry x="271.56" y="170" width="221.25" height="90" as="geometry" />
        </mxCell>
        <mxCell id="GB6EUP5TXQfbCuke4qzm-34" style="edgeStyle=orthogonalEdgeStyle;rounded=0;orthogonalLoop=1;jettySize=auto;html=1;entryX=0.5;entryY=0;entryDx=0;entryDy=0;fontSize=27;" parent="1" target="GB6EUP5TXQfbCuke4qzm-41" edge="1">
          <mxGeometry relative="1" as="geometry">
            <mxPoint x="385" y="260" as="sourcePoint" />
          </mxGeometry>
        </mxCell>
        <mxCell id="GB6EUP5TXQfbCuke4qzm-35" value="边缘纳管服务" style="rounded=1;whiteSpace=wrap;html=1;fillColor=#dae8fc;strokeColor=#6c8ebf;" parent="1" vertex="1">
          <mxGeometry x="337.18" y="230" width="90" height="30" as="geometry" />
        </mxCell>
        <mxCell id="GB6EUP5TXQfbCuke4qzm-36" value="" style="edgeStyle=orthogonalEdgeStyle;rounded=0;orthogonalLoop=1;jettySize=auto;html=1;fontSize=27;" parent="1" source="GB6EUP5TXQfbCuke4qzm-37" edge="1">
          <mxGeometry relative="1" as="geometry">
            <mxPoint x="650" y="310" as="targetPoint" />
          </mxGeometry>
        </mxCell>
        <mxCell id="GB6EUP5TXQfbCuke4qzm-37" value="&lt;font style=&quot;font-size: 18px;&quot;&gt;Kubernetes&lt;br&gt;APIServer&lt;/font&gt;" style="rounded=1;whiteSpace=wrap;html=1;fillColor=#6a00ff;fontColor=#ffffff;strokeColor=#3700CC;" parent="1" vertex="1">
          <mxGeometry x="480" y="280" width="140" height="60" as="geometry" />
        </mxCell>
        <mxCell id="GB6EUP5TXQfbCuke4qzm-38" value="&lt;font style=&quot;font-size: 27px;&quot;&gt;Cloud&lt;/font&gt;" style="text;html=1;strokeColor=none;fillColor=none;align=center;verticalAlign=middle;whiteSpace=wrap;rounded=0;fontSize=18;" parent="1" vertex="1">
          <mxGeometry x="60" y="340" width="60" height="30" as="geometry" />
        </mxCell>
        <mxCell id="GB6EUP5TXQfbCuke4qzm-39" value="&lt;div style=&quot;text-align: center;&quot;&gt;&lt;span style=&quot;background-color: initial;&quot;&gt;Edge&lt;/span&gt;&lt;/div&gt;" style="text;whiteSpace=wrap;html=1;fontSize=27;" parent="1" vertex="1">
          <mxGeometry x="50" y="420" width="100" height="60" as="geometry" />
        </mxCell>
        <mxCell id="GB6EUP5TXQfbCuke4qzm-40" value="" style="edgeStyle=orthogonalEdgeStyle;rounded=0;orthogonalLoop=1;jettySize=auto;html=1;fontSize=27;" parent="1" source="GB6EUP5TXQfbCuke4qzm-41" target="GB6EUP5TXQfbCuke4qzm-43" edge="1">
          <mxGeometry relative="1" as="geometry" />
        </mxCell>
        <mxCell id="GB6EUP5TXQfbCuke4qzm-41" value="&lt;font style=&quot;font-size: 18px;&quot;&gt;边缘应用管理服务&lt;/font&gt;" style="rounded=1;whiteSpace=wrap;html=1;fontSize=27;fillColor=#dae8fc;strokeColor=#6c8ebf;" parent="1" vertex="1">
          <mxGeometry x="277.18" y="450" width="215.63" height="70" as="geometry" />
        </mxCell>
        <mxCell id="GB6EUP5TXQfbCuke4qzm-42" value="" style="edgeStyle=orthogonalEdgeStyle;rounded=0;orthogonalLoop=1;jettySize=auto;html=1;fontSize=27;" parent="1" source="GB6EUP5TXQfbCuke4qzm-43" edge="1">
          <mxGeometry relative="1" as="geometry">
            <mxPoint x="385.0000000000002" y="660" as="targetPoint" />
          </mxGeometry>
        </mxCell>
        <mxCell id="GB6EUP5TXQfbCuke4qzm-43" value="&lt;font style=&quot;font-size: 18px;&quot;&gt;K3s&lt;br&gt;APIServer&lt;/font&gt;" style="rounded=1;whiteSpace=wrap;html=1;fillColor=#6a00ff;fontColor=#ffffff;strokeColor=#3700CC;" parent="1" vertex="1">
          <mxGeometry x="280" y="555" width="210" height="60" as="geometry" />
        </mxCell>
        <mxCell id="GB6EUP5TXQfbCuke4qzm-45" value="返回结果" style="text;html=1;strokeColor=none;fillColor=none;align=center;verticalAlign=middle;whiteSpace=wrap;rounded=0;fontSize=17;" parent="1" vertex="1">
          <mxGeometry x="260" y="420" width="100" height="30" as="geometry" />
        </mxCell>
        <mxCell id="GB6EUP5TXQfbCuke4qzm-46" value="下发应用管理指令" style="text;html=1;strokeColor=none;fillColor=none;align=center;verticalAlign=middle;whiteSpace=wrap;rounded=0;fontSize=17;" parent="1" vertex="1">
          <mxGeometry x="370" y="360" width="180" height="30" as="geometry" />
        </mxCell>
        <mxCell id="GB6EUP5TXQfbCuke4qzm-47" value="" style="endArrow=classic;html=1;rounded=0;fontSize=17;exitX=0.4;exitY=0.004;exitDx=0;exitDy=0;exitPerimeter=0;" parent="1" source="GB6EUP5TXQfbCuke4qzm-41" edge="1">
          <mxGeometry width="50" height="50" relative="1" as="geometry">
            <mxPoint x="420" y="390" as="sourcePoint" />
            <mxPoint x="363" y="260" as="targetPoint" />
          </mxGeometry>
        </mxCell>
        <mxCell id="GB6EUP5TXQfbCuke4qzm-49" value="Edge" style="rounded=0;whiteSpace=wrap;html=1;sketch=0;fillColor=#6666FF;opacity=10;" parent="1" vertex="1">
          <mxGeometry x="665" y="470" width="120" height="60" as="geometry" />
        </mxCell>
        <mxCell id="GB6EUP5TXQfbCuke4qzm-50" value="" style="endArrow=none;html=1;rounded=0;exitX=1;exitY=1;exitDx=0;exitDy=0;entryX=0;entryY=1;entryDx=0;entryDy=0;" parent="1" source="GB6EUP5TXQfbCuke4qzm-29" target="GB6EUP5TXQfbCuke4qzm-49" edge="1">
          <mxGeometry width="50" height="50" relative="1" as="geometry">
            <mxPoint x="370" y="670" as="sourcePoint" />
            <mxPoint x="420" y="620" as="targetPoint" />
          </mxGeometry>
        </mxCell>
        <mxCell id="GB6EUP5TXQfbCuke4qzm-51" value="" style="endArrow=none;html=1;rounded=0;entryX=1;entryY=0;entryDx=0;entryDy=0;exitX=0;exitY=0;exitDx=0;exitDy=0;" parent="1" source="GB6EUP5TXQfbCuke4qzm-49" target="GB6EUP5TXQfbCuke4qzm-29" edge="1">
          <mxGeometry width="50" height="50" relative="1" as="geometry">
            <mxPoint x="650" y="580" as="sourcePoint" />
            <mxPoint x="420" y="620" as="targetPoint" />
          </mxGeometry>
        </mxCell>
        <mxCell id="GB6EUP5TXQfbCuke4qzm-52" value="Edge" style="rounded=0;whiteSpace=wrap;html=1;sketch=0;fillColor=#6666FF;opacity=10;" parent="1" vertex="1">
          <mxGeometry x="665" y="660" width="120" height="60" as="geometry" />
        </mxCell>
        <mxCell id="GB6EUP5TXQfbCuke4qzm-53" value="" style="endArrow=none;dashed=1;html=1;rounded=0;strokeWidth=2;" parent="1" edge="1">
          <mxGeometry width="50" height="50" relative="1" as="geometry">
            <mxPoint x="720" y="640" as="sourcePoint" />
            <mxPoint x="720" y="560" as="targetPoint" />
          </mxGeometry>
        </mxCell>
        <mxCell id="GB6EUP5TXQfbCuke4qzm-54" value="&lt;font style=&quot;font-size: 13px;&quot;&gt;自定义资源对象&lt;br style=&quot;&quot;&gt;提供边缘端IP地址&lt;br&gt;&lt;/font&gt;" style="shape=cylinder3;whiteSpace=wrap;html=1;boundedLbl=1;backgroundOutline=1;size=15;fillColor=#ffe6cc;strokeColor=#d79b00;" parent="1" vertex="1">
          <mxGeometry x="655" y="270" width="130" height="80" as="geometry" />
        </mxCell>
        <mxCell id="GB6EUP5TXQfbCuke4qzm-55" value="&lt;span style=&quot;font-size: 14px;&quot;&gt;应用管理相关资源对象&lt;/span&gt;" style="shape=cylinder3;whiteSpace=wrap;html=1;boundedLbl=1;backgroundOutline=1;size=10.047677176339334;fontSize=13;fillColor=#ffe6cc;strokeColor=#d79b00;" parent="1" vertex="1">
          <mxGeometry x="325" y="660" width="120" height="80" as="geometry" />
        </mxCell>
        <mxCell id="GB6EUP5TXQfbCuke4qzm-56" value="" style="endArrow=classic;html=1;rounded=0;entryX=0.403;entryY=1.003;entryDx=0;entryDy=0;entryPerimeter=0;exitX=0.403;exitY=0.011;exitDx=0;exitDy=0;exitPerimeter=0;" parent="1" source="GB6EUP5TXQfbCuke4qzm-43" target="GB6EUP5TXQfbCuke4qzm-41" edge="1">
          <mxGeometry width="50" height="50" relative="1" as="geometry">
            <mxPoint x="330" y="560" as="sourcePoint" />
            <mxPoint x="380" y="510" as="targetPoint" />
          </mxGeometry>
        </mxCell>
        <mxCell id="GB6EUP5TXQfbCuke4qzm-59" value="" style="endArrow=classic;html=1;rounded=0;exitX=0;exitY=0.5;exitDx=0;exitDy=0;" parent="1" source="GB6EUP5TXQfbCuke4qzm-37" edge="1">
          <mxGeometry width="50" height="50" relative="1" as="geometry">
            <mxPoint x="430" y="390" as="sourcePoint" />
            <mxPoint x="390" y="310" as="targetPoint" />
          </mxGeometry>
        </mxCell>
        <mxCell id="GB6EUP5TXQfbCuke4qzm-60" value="提供边缘IP" style="text;html=1;strokeColor=none;fillColor=none;align=center;verticalAlign=middle;whiteSpace=wrap;rounded=0;" parent="1" vertex="1">
          <mxGeometry x="400" y="280" width="60" height="30" as="geometry" />
        </mxCell>
      </root>
    </mxGraphModel>
  </diagram>
</mxfile>
